#N canvas 62 211 974 783 10;
#X floatatom 202 353 5 0 0 0 - - -;
#X floatatom 202 334 5 0 0 0 - - -;
#X floatatom 202 315 5 0 0 0 - - -;
#X floatatom 202 296 5 0 0 0 - - -;
#X floatatom 203 277 5 0 0 0 - - -;
#X obj 10 188 sendOSC;
#X msg 10 166 disconnect;
#X floatatom 44 62 5 0 0 0 - - -;
#X msg 10 82 send /1 \$1;
#X msg 10 103 send /start 0;
#X obj 10 251 OSCroute /channels /start /5 /40 /220;
#X text 243 333 <- Received Startbyte (received once at Scriptstart)
;
#X text 243 348 <- How many channels we receive (received once at Scriptstart)
;
#X text 243 314 <- Channel 5;
#X text 243 295 <- Channel 40;
#X text 243 275 <- Channel 220;
#X floatatom 55 -23 5 0 0 0 - - -;
#X obj 34 -5 swap;
#X floatatom 34 -41 5 0 0 0 - - -;
#X obj 10 39 pack s f;
#X obj 10 17 makefilename /%d;
#X text 110 102 <- set start code \, you usually don't need this;
#X text 90 61 <- scroll to change value of channel 1;
#X text 95 -24 <- change channel;
#X text 95 -43 <- set value;
#X text 139 122 <- this sets the amount of DMX-channels we send in
one frame;
#X text 104 229 <- Binds to port 9002;
#X text 175 143 <- Press to connect to localhost on port 9001;
#X msg 10 144 connect localhost 9001;
#X msg 566 112 send /1 \$1;
#X msg 584 132 send /2 \$1;
#X msg 641 109 send /3 \$1;
#X msg 659 129 send /4 \$1;
#X obj 589 -93 vsl 15 100 0 255 0 0 empty empty empty 0 -9 0 10 -191407
-1 -1 0 1;
#X obj 604 -93 vsl 15 100 0 255 0 0 empty empty empty 0 -9 0 10 -258113
-1 -1 9900 1;
#X obj 619 -93 vsl 15 100 0 255 0 0 empty empty empty 0 -9 0 10 -4034
-1 -1 0 1;
#X obj 634 -93 vsl 15 100 0 255 0 0 empty empty empty 0 -9 0 10 -4160
-1 -1 9900 1;
#X obj 608 178 s \$0-dmx;
#X obj 106 196 r \$0-dmx;
#X obj 226 199 loadbang;
#X obj 10 229 dumpOSC 9002;
#X msg 10 123 send /channels 5;
#X obj 725 0 vsl 15 100 0 255 0 0 empty empty empty 0 -9 0 10 -191407
-1 -1 500 1;
#X msg 720 109 send /5 \$1;
#X obj 780 -20 vsl 15 100 0 255 0 0 empty empty empty 0 -9 0 10 -191407
-1 -1 9900 1;
#X msg 775 89 send /6 \$1;
#X obj 691 232 metro 1000;
#X obj 695 264 f 0;
#X obj 734 266 + 1;
#X obj 695 292 % 6;
#X obj 696 322 sel 0 1 2 3 4 5;
#X obj 592 494 line;
#X msg 642 464 255 1000;
#X msg 593 464 0 1000;
#X obj 597 440 sel 0 1;
#X obj 689 395 unpack f f f;
#X obj 702 494 line;
#X msg 752 464 255 1000;
#X msg 703 464 0 1000;
#X obj 707 440 sel 0 1;
#X obj 815 499 line;
#X msg 865 469 255 1000;
#X msg 816 469 0 1000;
#X obj 820 445 sel 0 1;
#X msg 654 365 1 0 0;
#X msg 703 365 1 1 0;
#X msg 850 364 0 0 1;
#X msg 902 366 1 0 1;
#X msg 752 365 0 1 0;
#X msg 800 364 0 1 1;
#X obj 586 531 s \$0-red;
#X obj 696 530 s \$0-green;
#X obj 810 529 s \$0-blue;
#X obj 526 -149 r \$0-red;
#X obj 636 -150 r \$0-green;
#X obj 750 -151 r \$0-blue;
#X obj 690 207 tgl 15 0 empty empty empty 17 7 0 10 -262144 -1 -1 0
1;
#X connect 6 0 5 0;
#X connect 7 0 8 0;
#X connect 8 0 5 0;
#X connect 9 0 5 0;
#X connect 10 0 0 0;
#X connect 10 1 1 0;
#X connect 10 2 2 0;
#X connect 10 3 3 0;
#X connect 10 4 4 0;
#X connect 16 0 17 1;
#X connect 17 0 20 0;
#X connect 17 1 19 1;
#X connect 18 0 17 0;
#X connect 19 0 5 0;
#X connect 20 0 19 0;
#X connect 28 0 5 0;
#X connect 29 0 37 0;
#X connect 30 0 37 0;
#X connect 31 0 37 0;
#X connect 32 0 37 0;
#X connect 33 0 29 0;
#X connect 34 0 30 0;
#X connect 35 0 31 0;
#X connect 36 0 32 0;
#X connect 38 0 5 0;
#X connect 39 0 28 0;
#X connect 40 0 10 0;
#X connect 41 0 5 0;
#X connect 42 0 43 0;
#X connect 43 0 37 0;
#X connect 44 0 45 0;
#X connect 45 0 37 0;
#X connect 46 0 47 0;
#X connect 47 0 48 0;
#X connect 47 0 49 0;
#X connect 48 0 47 1;
#X connect 49 0 50 0;
#X connect 50 0 64 0;
#X connect 50 1 65 0;
#X connect 50 2 68 0;
#X connect 50 3 69 0;
#X connect 50 4 66 0;
#X connect 50 5 67 0;
#X connect 51 0 70 0;
#X connect 52 0 51 0;
#X connect 53 0 51 0;
#X connect 54 0 53 0;
#X connect 54 1 52 0;
#X connect 55 0 54 0;
#X connect 55 1 59 0;
#X connect 55 2 63 0;
#X connect 56 0 71 0;
#X connect 57 0 56 0;
#X connect 58 0 56 0;
#X connect 59 0 58 0;
#X connect 59 1 57 0;
#X connect 60 0 72 0;
#X connect 61 0 60 0;
#X connect 62 0 60 0;
#X connect 63 0 62 0;
#X connect 63 1 61 0;
#X connect 64 0 55 0;
#X connect 65 0 55 0;
#X connect 66 0 55 0;
#X connect 67 0 55 0;
#X connect 68 0 55 0;
#X connect 69 0 55 0;
#X connect 73 0 34 0;
#X connect 74 0 35 0;
#X connect 75 0 36 0;
#X connect 76 0 46 0;
